# xmcd
#
# Track frame offsets: 
#        150
#        10811
#        23777
#        34057
#        46074
#        58444
#        70215
#        83494
#        94538
#        107668
#        117834
#        126678
#        139482
#        153482
#        166022
#        175866
#
# Disc length: 2542 seconds
#
# Revision: 3
# Processed by: cddbd v1.5.2PL0 Copyright (c) Steve Scherf et al.
# Submitted via: ExactAudioCopy v1.0b3
#
DISCID=d109ec10
DTITLE=Spears, Billie Jo - I'm So Lonesome I Could Cry
DYEAR=2004
DGENRE=Country
TTITLE0=I'm So Lonesome I Could Cry
TTITLE1=He's On The Run Again
TTITLE2=It Makes No Difference Now
TTITLE3=Look What They're Doing To My Song
TTITLE4=The Cheating Kind
TTITLE5=Ease The Want In Me
TTITLE6=Fever
TTITLE7=Come On Home
TTITLE8=It Could 'A Been Me
TTITLE9=I Stayed Long Enough
TTITLE10=You're My Man
TTITLE11=Dallas Sunshine
TTITLE12=Which Way You Goin' Billy
TTITLE13=Stepchild
TTITLE14=Souvenirs And California Memories
TTITLE15=I'll Never Be Free
EXTD=
EXTT0=
EXTT1=
EXTT2=
EXTT3=
EXTT4=
EXTT5=
EXTT6=
EXTT7=
EXTT8=
EXTT9=
EXTT10=
EXTT11=
EXTT12=
EXTT13=
EXTT14=
EXTT15=
PLAYORDER=
